<svg width="329" height="329" viewBox="0 0 329 329" fill="none" xmlns="http://www.w3.org/2000/svg">
<g clip-path="url(#clip0_242_167)">
<path d="M41.125 41.125H82.25V82.25H41.125V41.125Z" fill="black"/>
<path d="M123.375 0V123.375H0V0H123.375ZM102.812 20.5625H20.5625V102.812H102.812V20.5625ZM82.25 246.75H41.125V287.875H82.25V246.75Z" fill="black"/>
<path d="M123.375 205.625V329H0V205.625H123.375ZM20.5625 226.188V308.438H102.812V226.188H20.5625ZM246.75 41.125H287.875V82.25H246.75V41.125Z" fill="black"/>
<path d="M205.625 0V123.375H329V0H205.625ZM308.438 20.5625V102.812H226.188V20.5625H308.438ZM164.5 20.5625V0H185.062V41.125H164.5V82.25H143.938V20.5625H164.5ZM164.5 123.375V82.25H185.062V123.375H164.5ZM123.375 164.5V143.938H143.938V123.375H164.5V164.5H185.062V143.938H287.875V164.5H205.625V185.062H143.938V164.5H123.375ZM123.375 164.5V185.062H41.125V164.5H20.5625V185.062H0V143.938H61.6875V164.5H123.375ZM329 185.062H308.438V143.938H329V185.062ZM308.438 185.062H287.875V226.188H329V205.625H308.438V185.062ZM226.188 185.062H267.312V205.625H246.75V226.188H226.188V185.062ZM267.312 246.75V226.188H246.75V246.75H226.188V267.312H185.062V287.875H246.75V246.75H267.312ZM267.312 246.75H329V267.312H287.875V287.875H267.312V246.75ZM185.062 226.188V246.75H205.625V205.625H143.938V226.188H185.062Z" fill="black"/>
<path d="M143.938 246.75H164.5V308.438H246.75V329H143.938V246.75ZM329 287.875V329H267.312V308.438H308.438V287.875H329Z" fill="black"/>
</g>
<defs>
<clipPath id="clip0_242_167">
<rect width="329" height="329" fill="white"/>
</clipPath>
</defs>
</svg>
